<svg xmlns="http://www.w3.org/2000/svg" width="36" height="35" viewBox="0 0 36 35">
  <g id="Group_273" data-name="Group 273" transform="translate(-1359 -85)">
    <ellipse id="Ellipse_3" data-name="Ellipse 3" cx="18" cy="17.5" rx="18" ry="17.5" transform="translate(1359 85)" fill="#263b8a"/>
    <g id="noun_basket_3399620" transform="translate(1346.965 -96.645)">
      <g id="Basket_buy_shopping" data-name="Basket, buy, shopping" transform="translate(21.51 190.811)">
        <path id="Path_1190" data-name="Path 1190" d="M23.517,14.257h-2.7L19.127,9.806a.516.516,0,0,0-.963.365l1.543,4.086H12.828l1.465-4.094a.516.516,0,1,0-.972-.349l-1.584,4.443h-2.7A1.526,1.526,0,0,0,7.51,15.782v.287a1.526,1.526,0,0,0,1.266,1.5l1.1,7.246a1.671,1.671,0,0,0,1.667,1.376H21a1.671,1.671,0,0,0,1.673-1.376l1.11-7.246a1.526,1.526,0,0,0,1.266-1.5v-.287A1.526,1.526,0,0,0,23.517,14.257Zm-1.879,10.4a.637.637,0,0,1-.648.5H11.553a.637.637,0,0,1-.641-.5L9.822,17.591h12.9Zm2.37-8.591a.493.493,0,0,1-.491.491H9.032a.493.493,0,0,1-.491-.491v-.287a.493.493,0,0,1,.491-.493H23.517a.493.493,0,0,1,.491.493Z" transform="translate(-7.51 -9.472)" fill="#fff"/>
        <path id="Path_1191" data-name="Path 1191" d="M48.015,59.157a.516.516,0,0,0,.516-.524v-4a.516.516,0,0,0-1.031,0v4a.516.516,0,0,0,.516.524Z" transform="translate(-39.251 -44.911)" fill="#fff"/>
        <path id="Path_1192" data-name="Path 1192" d="M61.872,59.114a.514.514,0,0,0,.619-.394l.846-3.919a.516.516,0,1,0-1.007-.206l-.848,3.919a.514.514,0,0,0,.39.6Z" transform="translate(-50.342 -44.926)" fill="#fff"/>
        <path id="Path_1193" data-name="Path 1193" d="M30.274,58.673a.516.516,0,1,0,1.009-.219l-.848-3.919a.516.516,0,1,0-1.007.206Z" transform="translate(-24.89 -44.878)" fill="#fff"/>
      </g>
    </g>
  </g>
</svg>
