<svg id="Group_276" data-name="Group 276" xmlns="http://www.w3.org/2000/svg" width="183.238" height="244.89" viewBox="0 0 183.238 244.89">
  <path id="Path_101" data-name="Path 101" d="M.038,97.909a5.056,5.056,0,0,0,5,5.074h173.2a5.056,5.056,0,0,0,5-5.074V93.674a5.056,5.056,0,0,0-5-5.074H5a5.056,5.056,0,0,0-5,5.074v4.235Z" transform="translate(0 -54.798)" fill="#636363"/>
  <path id="Path_102" data-name="Path 102" d="M162.391,33.611a21.4,21.4,0,1,1,42.805,0l13.391-.076C218.587,14.307,202.984,0,183.794,0,164.566,0,149,14.307,149,33.535Z" transform="translate(-92.194)" fill="#636363"/>
  <path id="Path_103" data-name="Path 103" d="M30.3,159.6H184.394a4.58,4.58,0,0,1,4.845,4.54L175.772,335.246c-.8,5.761-2.1,8.355-8.775,8.355H48.12c-7.439,0-8.927-4.426-9.156-8.355L25.5,164.14C25.344,161.622,27.518,159.6,30.3,159.6ZM142.81,328.188l1.45.115c3.548.267,6.714-2.9,7.02-7.02L162,184.207c.343-4.158-2.327-7.782-5.837-8.05l-1.45-.115c-3.548-.267-6.715,2.9-7.02,7.02L136.935,320.139C136.63,324.3,139.262,327.921,142.81,328.188ZM100.157,320.9c0,4.158,2.9,7.554,6.447,7.554h1.45c3.548,0,6.486-3.4,6.486-7.554V183.445c0-4.158-2.9-7.554-6.486-7.554H106.6c-3.548,0-6.447,3.4-6.447,7.554ZM52.164,184.169,62.426,321.283c.305,4.158,3.472,7.325,7.02,7.058l1.45-.115c3.548-.267,6.18-3.892,5.875-8.012L66.508,183.1c-.305-4.158-3.472-7.325-7.02-7.058l-1.45.115C54.491,176.386,51.858,180.011,52.164,184.169Z" transform="translate(-15.73 -98.712)" fill="#636363"/>
</svg>
