<svg xmlns="http://www.w3.org/2000/svg" width="35" height="35" viewBox="0 0 35 35">
  <g id="Group_273" data-name="Group 273" transform="translate(-259 -251)">
    <circle id="Ellipse_4" data-name="Ellipse 4" cx="17.5" cy="17.5" r="17.5" transform="translate(259 251)" fill="#303030"/>
    <path id="Path_58" data-name="Path 58" d="M17.348,957.367a.638.638,0,0,1,.153.028l8.89,3.556a.456.456,0,0,1,.278.417v12a.456.456,0,0,1-.278.41l-8.89,3.556a.449.449,0,0,1-.333,0l-8.89-3.556a.456.456,0,0,1-.278-.41v-12a.456.456,0,0,1,.278-.417l8.89-3.556A.431.431,0,0,1,17.348,957.367Zm-.014.924-7.688,3.077,2.82,1.125,7.258-3.243Zm4.362,1.743L14.2,963.188l3.132,1.25,7.688-3.07Zm4.084,1.986-8,3.2v11.036l8-3.195Zm-16.891,0v11.043l8,3.195V965.222l-3.111-1.243v3.389L12,966.7v-3.438Z" transform="translate(259.576 -698.644)" fill="#fff"/>
  </g>
</svg>
