<svg xmlns="http://www.w3.org/2000/svg" width="35" height="35" viewBox="0 0 35 35">
  <g id="Group_275" data-name="Group 275" transform="translate(-663 -250)">
    <circle id="Ellipse_6" data-name="Ellipse 6" cx="17.5" cy="17.5" r="17.5" transform="translate(663 250)" fill="#303030"/>
    <g id="noun_tick_1167335" transform="translate(654 241)">
      <path id="Path_65" data-name="Path 65" d="M43.174,25.718l-6.847,6.847-2.419-2.613a.736.736,0,1,0-1.089.992h0l2.927,3.169a.681.681,0,0,0,.508.242h.024a.659.659,0,0,0,.508-.218l7.379-7.379a.73.73,0,0,0,0-1.04A.673.673,0,0,0,43.174,25.718Z" transform="translate(-10.563 -4.927)" fill="#fff"/>
      <path id="Path_66" data-name="Path 66" d="M21.845,34h8.71A3.139,3.139,0,0,0,33.7,30.855V26.04a.726.726,0,0,0-1.452,0v4.815a1.683,1.683,0,0,1-1.694,1.694h-8.71a1.683,1.683,0,0,1-1.694-1.694v-8.71a1.683,1.683,0,0,1,1.694-1.694H29.66a.726.726,0,1,0,0-1.452H21.845A3.139,3.139,0,0,0,18.7,22.145v8.71A3.139,3.139,0,0,0,21.845,34Z" fill="#fff"/>
    </g>
  </g>
</svg>
