<svg xmlns="http://www.w3.org/2000/svg" width="35" height="35" viewBox="0 0 35 35">
  <g id="Group_274" data-name="Group 274" transform="translate(-481 -251)">
    <circle id="Ellipse_5" data-name="Ellipse 5" cx="17.5" cy="17.5" r="17.5" transform="translate(481 251)" fill="#303030"/>
    <g id="noun_click_1159662" transform="translate(1421 -694.6)">
      <g id="Group_7" data-name="Group 7" transform="translate(-929.3 953.6)">
        <path id="Path_59" data-name="Path 59" d="M-916.938,978.192a1.357,1.357,0,0,0-.654.148,1.559,1.559,0,0,0-1.266-.633,1.4,1.4,0,0,0-.717.19,1.563,1.563,0,0,0-1.2-.57,2.076,2.076,0,0,0-.359.042v-3.586a1.594,1.594,0,0,0-1.582-1.582,1.594,1.594,0,0,0-1.582,1.582v6.646l-.759-1.16a1.379,1.379,0,0,0-.992-.612,1.666,1.666,0,0,0-1.139.253,1.735,1.735,0,0,0-.7.949,1.432,1.432,0,0,0,.169,1.139c.021.042,3.165,4.789,3.713,5.591a4.174,4.174,0,0,0,3.291,1.688h1.224a4.039,4.039,0,0,0,4.051-3.987v-4.515A1.5,1.5,0,0,0-916.938,978.192Zm.612,6.034v.084a3.161,3.161,0,0,1-3.165,3.1h-1.224a3.328,3.328,0,0,1-2.553-1.308c-.549-.8-3.671-5.549-3.692-5.591a.5.5,0,0,1-.063-.422.691.691,0,0,1,.317-.422.76.76,0,0,1,.422-.127h.105a.52.52,0,0,1,.359.211l1.6,2.426a.472.472,0,0,0,.506.19.456.456,0,0,0,.317-.443v-8.143a.666.666,0,0,1,.675-.675.667.667,0,0,1,.675.675v6.456a.446.446,0,0,0,.443.443.46.46,0,0,0,.443-.443v-1.92a.711.711,0,0,1,.359-.105.662.662,0,0,1,.612.422v1.709a.446.446,0,0,0,.443.443.46.46,0,0,0,.443-.443v-1.6a.72.72,0,0,1,.4-.148.659.659,0,0,1,.633.464v1.5a.446.446,0,0,0,.443.443.446.446,0,0,0,.443-.443V979.2a.632.632,0,0,1,.38-.127.626.626,0,0,1,.612.675v4.473Z" transform="translate(928.225 -968.276)" fill="#fff"/>
        <path id="Path_60" data-name="Path 60" d="M-905.162,956.364a.446.446,0,0,0,.443-.443v-1.878a.446.446,0,0,0-.443-.443.46.46,0,0,0-.443.443v1.878A.432.432,0,0,0-905.162,956.364Z" transform="translate(910.605 -953.6)" fill="#fff"/>
        <path id="Path_61" data-name="Path 61" d="M-920.944,962.589a.465.465,0,0,0,.316.127.465.465,0,0,0,.316-.127.459.459,0,0,0,0-.633l-1.329-1.329a.459.459,0,0,0-.633,0,.459.459,0,0,0,0,.633Z" transform="translate(923.856 -959.044)" fill="#fff"/>
        <path id="Path_62" data-name="Path 62" d="M-926.979,978.186a.446.446,0,0,0,.443-.443.46.46,0,0,0-.443-.443h-1.878a.446.446,0,0,0-.443.443.46.46,0,0,0,.443.443Z" transform="translate(929.3 -972.3)" fill="#fff"/>
        <path id="Path_63" data-name="Path 63" d="M-890.9,977.643a.446.446,0,0,0,.443.443h1.878a.446.446,0,0,0,.443-.443.46.46,0,0,0-.443-.443h-1.878A.446.446,0,0,0-890.9,977.643Z" transform="translate(899.001 -972.221)" fill="#fff"/>
        <path id="Path_64" data-name="Path 64" d="M-894.757,962.715a.465.465,0,0,0,.316-.127l1.329-1.329a.459.459,0,0,0,0-.633.459.459,0,0,0-.633,0l-1.329,1.329a.459.459,0,0,0,0,.633A.465.465,0,0,0-894.757,962.715Z" transform="translate(902.394 -959.044)" fill="#fff"/>
      </g>
    </g>
  </g>
</svg>
