<svg xmlns="http://www.w3.org/2000/svg" width="35" height="35" viewBox="0 0 35 35">
  <g id="Group_276" data-name="Group 276" transform="translate(-859 -251)">
    <circle id="Ellipse_7" data-name="Ellipse 7" cx="17.5" cy="17.5" r="17.5" transform="translate(859 251)" fill="#303030"/>
    <g id="Group_10" data-name="Group 10" transform="translate(854.06 246.049)">
      <g id="Group_8" data-name="Group 8" transform="translate(18.456 18.456)">
        <path id="Path_67" data-name="Path 67" d="M38.6,42.591a4,4,0,1,1,4-4A4,4,0,0,1,38.6,42.591Zm0-7.472A3.476,3.476,0,1,0,42.072,38.6,3.477,3.477,0,0,0,38.6,35.119Z" transform="translate(-34.6 -34.6)" fill="#fff"/>
      </g>
      <g id="Group_9" data-name="Group 9" transform="translate(12.8 12.8)">
        <path id="Path_68" data-name="Path 68" d="M23.541,32.1H21.387a.561.561,0,0,1-.571-.467L20.272,29.2a8.313,8.313,0,0,1-1.012-.415L17.133,30.13a.59.59,0,0,1-.726-.078l-1.531-1.531A.586.586,0,0,1,14.8,27.8l1.349-2.127a8.313,8.313,0,0,1-.415-1.012l-2.465-.545a.585.585,0,0,1-.467-.571V21.387a.561.561,0,0,1,.467-.571l2.465-.545a6.9,6.9,0,0,1,.415-1.012L14.8,17.133a.59.59,0,0,1,.078-.726l1.531-1.531a.586.586,0,0,1,.726-.078l2.127,1.349a8.313,8.313,0,0,1,1.012-.415l.545-2.465a.585.585,0,0,1,.571-.467h2.153a.561.561,0,0,1,.571.467l.545,2.465a8.313,8.313,0,0,1,1.012.415L27.8,14.8a.59.59,0,0,1,.726.078l1.531,1.531a.586.586,0,0,1,.078.726L28.781,19.26a6.6,6.6,0,0,1,.415.986l2.465.545a.585.585,0,0,1,.467.571v2.179a.561.561,0,0,1-.467.571l-2.465.545a6.6,6.6,0,0,1-.415.986l1.349,2.127a.59.59,0,0,1-.078.726l-1.531,1.531a.586.586,0,0,1-.726.078l-2.127-1.349a5.9,5.9,0,0,1-1.012.415l-.545,2.465A.561.561,0,0,1,23.541,32.1ZM21.854,30.96h1.219l.519-2.361a.6.6,0,0,1,.415-.441,5.9,5.9,0,0,0,1.375-.571.553.553,0,0,1,.6.026L28,28.911l.882-.882-1.3-2.024a.612.612,0,0,1-.026-.6,5.717,5.717,0,0,0,.571-1.375.6.6,0,0,1,.441-.415l2.335-.519V21.854l-2.335-.519a.6.6,0,0,1-.441-.415,5.315,5.315,0,0,0-.571-1.375.553.553,0,0,1,.026-.6l1.3-2.024L28,16.043l-2.024,1.3a.612.612,0,0,1-.6.026,5.717,5.717,0,0,0-1.375-.571.6.6,0,0,1-.415-.441l-.519-2.335H21.854l-.519,2.335a.6.6,0,0,1-.415.441,6.616,6.616,0,0,0-1.4.571.553.553,0,0,1-.6-.026l-2.024-1.3-.856.856,1.3,2.024a.552.552,0,0,1,0,.6,5.486,5.486,0,0,0-.571,1.4.6.6,0,0,1-.441.415l-2.335.519v1.219l2.335.519a.6.6,0,0,1,.441.415,6.615,6.615,0,0,0,.571,1.4.553.553,0,0,1-.026.6l-1.3,2.024.856.856,2.024-1.3a.612.612,0,0,1,.6-.026,5.486,5.486,0,0,0,1.4.571.6.6,0,0,1,.415.441Z" transform="translate(-12.8 -12.8)" fill="#fff"/>
      </g>
    </g>
  </g>
</svg>
