<svg id="Group_140" data-name="Group 140" xmlns="http://www.w3.org/2000/svg" width="14.939" height="14.939" viewBox="0 0 14.939 14.939">
  <path id="Path_401" data-name="Path 401" d="M560.438,62.478c1.995,0,2.231.008,3.018.044a4.133,4.133,0,0,1,1.387.257,2.473,2.473,0,0,1,1.418,1.418,4.131,4.131,0,0,1,.257,1.387c.036.788.044,1.024.044,3.018s-.008,2.231-.044,3.018a4.131,4.131,0,0,1-.257,1.387,2.473,2.473,0,0,1-1.418,1.418,4.133,4.133,0,0,1-1.387.257c-.788.036-1.024.044-3.018.044s-2.231-.008-3.018-.044a4.133,4.133,0,0,1-1.387-.257,2.474,2.474,0,0,1-1.418-1.418,4.133,4.133,0,0,1-.257-1.387c-.036-.788-.044-1.024-.044-3.018s.008-2.231.044-3.018a4.134,4.134,0,0,1,.257-1.387,2.473,2.473,0,0,1,1.418-1.418,4.133,4.133,0,0,1,1.387-.257c.788-.036,1.024-.044,3.018-.044m0-1.346c-2.029,0-2.283.009-3.08.045a5.482,5.482,0,0,0-1.813.347,3.82,3.82,0,0,0-2.185,2.185,5.486,5.486,0,0,0-.347,1.813c-.036.8-.045,1.051-.045,3.08s.009,2.283.045,3.08a5.486,5.486,0,0,0,.347,1.813,3.82,3.82,0,0,0,2.185,2.185,5.482,5.482,0,0,0,1.813.347c.8.036,1.051.045,3.08.045s2.283-.009,3.08-.045a5.483,5.483,0,0,0,1.813-.347,3.82,3.82,0,0,0,2.185-2.185,5.484,5.484,0,0,0,.347-1.813c.036-.8.045-1.051.045-3.08s-.009-2.283-.045-3.08a5.484,5.484,0,0,0-.347-1.813,3.82,3.82,0,0,0-2.185-2.185,5.483,5.483,0,0,0-1.813-.347c-.8-.036-1.051-.045-3.08-.045Z" transform="translate(-552.968 -61.132)" fill="#fff"/>
  <path id="Path_402" data-name="Path 402" d="M679.36,183.688a3.836,3.836,0,1,0,3.836,3.836A3.836,3.836,0,0,0,679.36,183.688Zm0,6.326a2.49,2.49,0,1,1,2.49-2.49A2.49,2.49,0,0,1,679.36,190.014Z" transform="translate(-671.89 -180.054)" fill="#fff"/>
  <circle id="Ellipse_10" data-name="Ellipse 10" cx="0.896" cy="0.896" r="0.896" transform="translate(10.561 2.586)" fill="#fff"/>
</svg>
