<svg id="Group_141" data-name="Group 141" xmlns="http://www.w3.org/2000/svg" width="15.152" height="14.939" viewBox="0 0 15.152 14.939">
  <path id="Path_404" data-name="Path 404" d="M905.471,494.547a1.615,1.615,0,0,1-1.748,1.62,1.623,1.623,0,1,1,1.748-1.62Zm-3.346,13.32V497.446h3.239v10.421Z" transform="translate(-902.04 -492.928)" fill="#fff"/>
  <path id="Path_405" data-name="Path 405" d="M933.871,522.748c0-1.3-.043-2.387-.085-3.325H936.6l.149,1.449h.064a3.742,3.742,0,0,1,3.218-1.684c2.131,0,3.729,1.428,3.729,4.5v6.159h-3.239v-5.775c0-1.343-.469-2.259-1.641-2.259a1.779,1.779,0,0,0-1.662,1.215,2.331,2.331,0,0,0-.107.81v6.01h-3.239Z" transform="translate(-928.608 -514.906)" fill="#fff"/>
</svg>
