<svg xmlns="http://www.w3.org/2000/svg" width="18.385" height="14.939" viewBox="0 0 18.385 14.939">
  <path id="Path_403" data-name="Path 403" d="M80.782,113.39a10.66,10.66,0,0,0,10.733-10.733c0-.163,0-.326-.011-.488a7.675,7.675,0,0,0,1.882-1.953,7.529,7.529,0,0,1-2.167.593,3.785,3.785,0,0,0,1.658-2.086,7.559,7.559,0,0,1-2.4.916,3.776,3.776,0,0,0-6.428,3.44,10.709,10.709,0,0,1-7.774-3.941,3.775,3.775,0,0,0,1.168,5.035,3.744,3.744,0,0,1-1.712-.472v.048a3.773,3.773,0,0,0,3.026,3.7,3.766,3.766,0,0,1-1.7.065,3.776,3.776,0,0,0,3.524,2.62A7.569,7.569,0,0,1,75.9,111.75a7.679,7.679,0,0,1-.9-.054,10.679,10.679,0,0,0,5.782,1.691" transform="translate(-75 -98.45)" fill="#fff"/>
</svg>
