<svg id="CTC_Logo_Blue" data-name="CTC Logo – Blue" xmlns="http://www.w3.org/2000/svg" width="197.417" height="85" viewBox="0 0 197.417 85">
  <path id="Path_1" data-name="Path 1" d="M216.783,87.424V79.068h-3.659l5.84-10.994V76.43h3.659ZM217.873,64a13.747,13.747,0,1,0,13.866,13.747A13.806,13.806,0,0,0,217.873,64" transform="translate(-34.322 -29.375)" fill="#263b8a"/>
  <path id="Path_2" data-name="Path 2" d="M99.693,85.8C94.228,90.982,87.1,93.73,78.543,93.73c-19.407,0-33.269-14.136-33.269-31.178,0-16.65,13.15-30.942,32.161-30.942,12.278,0,19.882,6.046,21.863,8.4L93.911,47A23.763,23.763,0,0,0,77.435,40.72c-13.466,0-21.387,10.287-21.387,21.6,0,12.409,9.426,22.383,22.972,22.383,7.525,0,13.624-3.063,16-5.419Z" transform="translate(-45.274 -31.61)" fill="#263b8a"/>
  <path id="Path_3" data-name="Path 3" d="M117.55,92.3V42.042H99.886v-9.11h45.388v9.11H127.69V92.3Z" transform="translate(-41.506 -31.519)" fill="#263b8a"/>
  <path id="Path_4" data-name="Path 4" d="M198.987,85.8c-5.466,5.184-12.595,7.932-21.149,7.932-19.408,0-33.27-14.136-33.27-31.178,0-16.65,13.15-30.942,32.161-30.942,12.278,0,19.882,6.046,21.863,8.4L193.205,47a23.761,23.761,0,0,0-16.476-6.282c-13.466,0-21.387,10.287-21.387,21.6,0,12.409,9.426,22.383,22.972,22.383,7.526,0,13.624-3.063,16-5.419Z" transform="translate(-38.423 -31.61)" fill="#263b8a"/>
  <path id="Path_5" data-name="Path 5" d="M45.275,109.337v-3.589a2.222,2.222,0,1,1,4.44,0v.421H48.386v-.478a.847.847,0,0,0-.9-.976c-.453,0-.885.238-.885.976v3.69c0,.727.42.977.885.977a.856.856,0,0,0,.9-.977V108.8h1.329v.533a2.221,2.221,0,1,1-4.44,0" transform="translate(-45.274 -26.655)" fill="#263b8a"/>
  <path id="Path_6" data-name="Path 6" d="M54.572,105.481l.693,3.327h-1.4Zm-.716-1.953-1.93,8.006h1.351l.352-1.567h1.862l.341,1.567h1.351l-1.9-8.006Z" transform="translate(-44.815 -26.648)" fill="#263b8a"/>
  <path id="Path_7" data-name="Path 7" d="M61.673,110.262c.6,0,.919-.148.919-.931v-.408c0-.715-.319-.909-.874-.909h-.772v2.248Zm.022-3.293c.5,0,.84-.125.84-.909v-.307c0-.818-.363-.942-.931-.942h-.658v2.157Zm-2.078-3.441h2.032c1.306,0,2.2.579,2.2,2.032v.375c0,.874-.3,1.329-.806,1.545.545.238.874.669.874,1.612v.465c0,1.42-.9,1.977-2.2,1.977h-2.1Z" transform="translate(-44.284 -26.648)" fill="#263b8a"/>
  <path id="Path_8" data-name="Path 8" d="M66.8,103.528v8.006h3.508V110.25H68.139v-6.722Z" transform="translate(-43.789 -26.648)" fill="#263b8a"/>
  <path id="Path_9" data-name="Path 9" d="M72.994,103.528v8.006h3.725V110.25h-2.4v-2.168h1.782v-1.171H74.323v-2.09h2.4v-1.293Z" transform="translate(-43.362 -26.648)" fill="#263b8a"/>
  <path id="Path_10" data-name="Path 10" d="M83.268,103.528v1.293h1.351v6.712h1.329v-6.712H87.31v-1.293Z" transform="translate(-42.653 -26.648)" fill="#263b8a"/>
  <path id="Path_11" data-name="Path 11" d="M89.919,103.528v8.006h3.724V110.25h-2.4v-2.168H93.03v-1.171H91.248v-2.09h2.4v-1.293Z" transform="translate(-42.194 -26.648)" fill="#263b8a"/>
  <path id="Path_12" data-name="Path 12" d="M98.491,108.149c.557,0,1.056-.215,1.056-1.18v-1.022c0-.909-.5-1.135-1.056-1.135h-.614v3.337Zm-1.953-4.621h2.111a2.151,2.151,0,0,1,2.215,2.43v1.056a2.1,2.1,0,0,1-1.125,2.078l1.125,2.442H99.41l-.9-2.112h-.636v2.112H96.538Z" transform="translate(-41.737 -26.648)" fill="#263b8a"/>
  <path id="Path_13" data-name="Path 13" d="M107.985,103.528l-1.442,4.882-1.442-4.882h-1.317v8.006H105.1V107.15l.988,3.18h.9l.988-3.2v4.405H109.3v-8.006Z" transform="translate(-41.237 -26.648)" fill="#263b8a"/>
  <rect id="Rectangle_2" data-name="Rectangle 2" width="1.329" height="8.006" transform="translate(71.689 76.88)" fill="#263b8a"/>
  <path id="Path_14" data-name="Path 14" d="M116.959,103.528v8.006h1.328v-4.667l1.886,4.667h1.249V103.54h-1.339v4.724l-1.874-4.736Z" transform="translate(-40.328 -26.648)" fill="#263b8a"/>
  <path id="Path_15" data-name="Path 15" d="M126.575,105.481l.693,3.327h-1.4Zm-.716-1.953-1.93,8.006h1.35l.353-1.567h1.861l.342,1.567h1.35l-1.9-8.006Z" transform="translate(-39.847 -26.648)" fill="#263b8a"/>
  <path id="Path_16" data-name="Path 16" d="M130.823,103.528v1.293h1.351v6.712H133.5v-6.712h1.362v-1.293Z" transform="translate(-39.372 -26.648)" fill="#263b8a"/>
  <rect id="Rectangle_3" data-name="Rectangle 3" width="1.329" height="8.006" transform="translate(98.595 76.88)" fill="#263b8a"/>
  <path id="Path_17" data-name="Path 17" d="M145.1,109.382v-3.69a.847.847,0,0,0-.9-.976c-.453,0-.885.238-.885.976v3.69c0,.727.42.977.885.977a.856.856,0,0,0,.9-.977m-3.111-.045v-3.589a2.222,2.222,0,1,1,4.44,0v3.589a2.221,2.221,0,1,1-4.44,0" transform="translate(-38.601 -26.655)" fill="#263b8a"/>
  <path id="Path_18" data-name="Path 18" d="M149.363,103.528v8.006h1.328v-4.667l1.885,4.667h1.25V103.54h-1.339v4.724l-1.875-4.736Z" transform="translate(-38.092 -26.648)" fill="#263b8a"/>
  <path id="Path_19" data-name="Path 19" d="M160.826,109.337v-3.589a2.222,2.222,0,1,1,4.44,0v.421h-1.329v-.478a.847.847,0,0,0-.9-.976c-.453,0-.885.238-.885.976v3.69c0,.727.42.977.885.977a.856.856,0,0,0,.9-.977V108.8h1.329v.533a2.221,2.221,0,1,1-4.44,0" transform="translate(-37.302 -26.655)" fill="#263b8a"/>
  <path id="Path_20" data-name="Path 20" d="M171.045,109.382v-3.69a.847.847,0,0,0-.9-.976c-.453,0-.885.238-.885.976v3.69c0,.727.42.977.885.977a.856.856,0,0,0,.9-.977m-3.111-.045v-3.589a2.222,2.222,0,1,1,4.44,0v3.589a2.221,2.221,0,1,1-4.44,0" transform="translate(-36.811 -26.655)" fill="#263b8a"/>
  <path id="Path_21" data-name="Path 21" d="M179.508,103.528l-1.441,4.882-1.442-4.882h-1.317v8.006h1.317V107.15l.988,3.18h.9l.988-3.2v4.405h1.329v-8.006Z" transform="translate(-36.302 -26.648)" fill="#263b8a"/>
  <path id="Path_22" data-name="Path 22" d="M185.781,108.264c.545,0,1.068-.239,1.068-1.135V105.97c0-.954-.533-1.158-1.068-1.158h-.614v3.452Zm-1.953-4.736h2.1a2.165,2.165,0,0,1,2.226,2.43v1.181a2.137,2.137,0,0,1-2.226,2.4h-.761v2h-1.339Z" transform="translate(-35.715 -26.648)" fill="#263b8a"/>
  <path id="Path_23" data-name="Path 23" d="M194.047,109.382v-3.69a.847.847,0,0,0-.9-.976c-.453,0-.885.238-.885.976v3.69c0,.727.42.977.885.977a.856.856,0,0,0,.9-.977m-3.111-.045v-3.589a2.222,2.222,0,1,1,4.44,0v3.589a2.221,2.221,0,1,1-4.44,0" transform="translate(-35.224 -26.655)" fill="#263b8a"/>
  <path id="Path_24" data-name="Path 24" d="M198.31,103.528v8.006h1.328v-4.667l1.886,4.667h1.249V103.54h-1.339v4.724l-1.874-4.736Z" transform="translate(-34.715 -26.648)" fill="#263b8a"/>
  <path id="Path_25" data-name="Path 25" d="M205.832,103.528v8.006h3.724V110.25h-2.4v-2.168h1.782v-1.171h-1.782v-2.09h2.4v-1.293Z" transform="translate(-34.196 -26.648)" fill="#263b8a"/>
  <path id="Path_26" data-name="Path 26" d="M212.461,103.528v8.006h1.329v-4.667l1.885,4.667h1.249V103.54h-1.339v4.724l-1.874-4.736Z" transform="translate(-33.739 -26.648)" fill="#263b8a"/>
  <path id="Path_27" data-name="Path 27" d="M219.569,103.528v1.293h1.352v6.712h1.328v-6.712h1.363v-1.293Z" transform="translate(-33.249 -26.648)" fill="#263b8a"/>
  <path id="Path_28" data-name="Path 28" d="M225.763,109.35h1.317a.913.913,0,0,0,.965,1.045.811.811,0,0,0,.885-.84c0-1.386-3.076-2.067-3.076-4.065a1.986,1.986,0,0,1,2.157-2.066,2.078,2.078,0,0,1,2.157,2.236h-1.305c0-.7-.375-1-.863-1a.738.738,0,0,0-.818.761c0,1.42,3.054,1.919,3.054,4.042a2.029,2.029,0,0,1-2.191,2.193,2.164,2.164,0,0,1-2.282-2.306" transform="translate(-32.821 -26.655)" fill="#263b8a"/>
</svg>
